# xmcd
#
# Track frame offsets:
#	150
#	19556
#	28575
#	54931
#	58476
#	92776
#	109389
#	139099
#	161217
#
# Disc length: 2485 seconds
#
# Revision: 15
# Processed by: cddbd v1.5.2PL0 Copyright (c) Steve Scherf et al.
# Submitted via: Jack! The Knife 20 Magnifico
#
DISCID=7a09b309
DTITLE=Black Sabbath - Born Again
DYEAR=1983
DGENRE=Metal
TTITLE0=Trashed
TTITLE1=Stonehenge
TTITLE2=Disturbing The Priest
TTITLE3=The Dark
TTITLE4=Zero The Hero
TTITLE5=Digital Bitch
TTITLE6=Born Again
TTITLE7=Hot Line
TTITLE8=Keep It Warm
EXTD=Black Sabbath and Robin Black
EXTT0=Iommi, Butler, Ward, Gillan
EXTT1=Iommi, Butler, Ward, Gillan
EXTT2=Iommi, Butler, Ward, Gillan
EXTT3=Iommi, Butler, Ward, Gillan
EXTT4=Iommi, Butler, Ward, Gillan
EXTT5=Iommi, Butler, Ward, Gillan
EXTT6=Iommi, Butler, Ward, Gillan
EXTT7=Iommi, Butler, Gillan
EXTT8=Iommi, Butler, Gillan
PLAYORDER=
